<svg width="251" height="48" viewBox="0 0 251 48" fill="none" xmlns="http://www.w3.org/2000/svg">
<path d="M61.9204 12.9609H65.5229L71.5474 29.5508L77.5566 12.9609H81.1743L72.9854 35H70.0942L61.9204 12.9609ZM60.104 12.9609H63.6309L64.2666 28.2036V35H60.104V12.9609ZM79.4487 12.9609H82.9907V35H78.8281V28.2036L79.4487 12.9609ZM85.5948 26.9775V26.6597C85.5948 25.4588 85.7664 24.3538 86.1095 23.3447C86.4526 22.3255 86.9521 21.4425 87.608 20.6958C88.264 19.9491 89.0662 19.3688 90.0148 18.9551C90.9633 18.5312 92.0431 18.3193 93.254 18.3193C94.4851 18.3193 95.575 18.5312 96.5236 18.9551C97.4822 19.3688 98.2895 19.9491 98.9454 20.6958C99.6014 21.4425 100.101 22.3255 100.444 23.3447C100.787 24.3538 100.959 25.4588 100.959 26.6597V26.9775C100.959 28.1683 100.787 29.2733 100.444 30.2925C100.101 31.3016 99.6014 32.1846 98.9454 32.9414C98.2895 33.6882 97.4873 34.2684 96.5387 34.6821C95.5901 35.0959 94.5053 35.3027 93.2843 35.3027C92.0734 35.3027 90.9886 35.0959 90.0299 34.6821C89.0712 34.2684 88.264 33.6882 87.608 32.9414C86.9521 32.1846 86.4526 31.3016 86.1095 30.2925C85.7664 29.2733 85.5948 28.1683 85.5948 26.9775ZM89.5909 26.6597V26.9775C89.5909 27.694 89.6616 28.3651 89.8029 28.9907C89.9441 29.6164 90.1611 30.1663 90.4537 30.6406C90.7464 31.1149 91.1248 31.4883 91.589 31.7607C92.0633 32.0231 92.6284 32.1543 93.2843 32.1543C93.9301 32.1543 94.4851 32.0231 94.9493 31.7607C95.4135 31.4883 95.7919 31.1149 96.0846 30.6406C96.3873 30.1663 96.6093 29.6164 96.7506 28.9907C96.8919 28.3651 96.9625 27.694 96.9625 26.9775V26.6597C96.9625 25.9533 96.8919 25.2923 96.7506 24.6768C96.6093 24.0511 96.3873 23.5011 96.0846 23.0269C95.7919 22.5425 95.4085 22.1641 94.9342 21.8916C94.47 21.609 93.9099 21.4678 93.254 21.4678C92.6082 21.4678 92.0532 21.609 91.589 21.8916C91.1248 22.1641 90.7464 22.5425 90.4537 23.0269C90.1611 23.5011 89.9441 24.0511 89.8029 24.6768C89.6616 25.2923 89.5909 25.9533 89.5909 26.6597ZM107.165 22.1187V35H103.169V18.6221H106.923L107.165 22.1187ZM106.53 26.2207H105.349C105.359 25.0299 105.52 23.9502 105.833 22.9814C106.146 22.0127 106.585 21.1802 107.15 20.4839C107.725 19.7876 108.406 19.2528 109.194 18.8794C109.981 18.506 110.859 18.3193 111.827 18.3193C112.614 18.3193 113.326 18.4303 113.962 18.6523C114.597 18.8743 115.142 19.2275 115.596 19.7119C116.061 20.1963 116.414 20.832 116.656 21.6191C116.908 22.3962 117.034 23.3548 117.034 24.4951V35H113.008V24.4648C113.008 23.7181 112.897 23.1278 112.675 22.6938C112.463 22.2599 112.15 21.9521 111.737 21.7705C111.333 21.5889 110.833 21.498 110.238 21.498C109.622 21.498 109.083 21.6242 108.618 21.8765C108.164 22.1187 107.781 22.4567 107.468 22.8906C107.165 23.3245 106.933 23.8241 106.772 24.3892C106.61 24.9543 106.53 25.5648 106.53 26.2207ZM127.298 35.3027C126.057 35.3027 124.941 35.1009 123.952 34.6973C122.964 34.2936 122.121 33.7336 121.425 33.0171C120.738 32.2905 120.209 31.4479 119.835 30.4893C119.472 29.5205 119.29 28.4811 119.29 27.3711V26.7656C119.29 25.5042 119.472 24.3589 119.835 23.3296C120.199 22.2902 120.713 21.3971 121.379 20.6504C122.045 19.9036 122.842 19.3285 123.771 18.9248C124.699 18.5212 125.723 18.3193 126.844 18.3193C128.004 18.3193 129.028 18.5161 129.916 18.9097C130.804 19.2931 131.546 19.8381 132.141 20.5444C132.737 21.2508 133.186 22.0985 133.489 23.0874C133.791 24.0662 133.943 25.151 133.943 26.3418V28.022H121.107V25.2671H130.007V24.9644C129.987 24.3286 129.866 23.7484 129.644 23.2236C129.422 22.6888 129.079 22.265 128.615 21.9521C128.15 21.6292 127.55 21.4678 126.813 21.4678C126.218 21.4678 125.698 21.599 125.254 21.8613C124.82 22.1136 124.457 22.4769 124.164 22.9512C123.882 23.4154 123.67 23.9704 123.529 24.6162C123.387 25.262 123.317 25.9785 123.317 26.7656V27.3711C123.317 28.0573 123.408 28.693 123.589 29.2783C123.781 29.8636 124.058 30.3732 124.422 30.8071C124.795 31.231 125.239 31.564 125.754 31.8062C126.279 32.0382 126.874 32.1543 127.54 32.1543C128.377 32.1543 129.134 31.9928 129.81 31.6699C130.497 31.3369 131.092 30.8475 131.597 30.2017L133.61 32.2905C133.267 32.7951 132.802 33.2795 132.217 33.7437C131.642 34.2078 130.946 34.5863 130.128 34.8789C129.311 35.1615 128.367 35.3027 127.298 35.3027ZM140.588 33.1836L144.978 18.6221H149.262L142.692 37.4824C142.541 37.8861 142.344 38.325 142.102 38.7993C141.87 39.2736 141.557 39.7227 141.164 40.1465C140.77 40.5804 140.276 40.9336 139.68 41.2061C139.095 41.4785 138.383 41.6147 137.546 41.6147C137.183 41.6147 136.86 41.5895 136.577 41.5391C136.295 41.4886 135.997 41.423 135.684 41.3423V38.3452C135.785 38.3553 135.901 38.3604 136.032 38.3604C136.173 38.3704 136.295 38.3755 136.395 38.3755C136.981 38.3755 137.465 38.3049 137.849 38.1636C138.232 38.0324 138.54 37.8154 138.772 37.5127C139.014 37.2201 139.216 36.8366 139.377 36.3623L140.588 33.1836ZM138.424 18.6221L142.132 30.686L142.783 34.9092L140.028 35.4087L134.11 18.6221H138.424ZM160.342 12.9609V35H156.195V12.9609H160.342ZM167.184 12.9609V16.2456H149.429V12.9609H167.184ZM171.968 21.9673V35H167.972V18.6221H171.756L171.968 21.9673ZM176.948 18.5161L176.887 22.2397C176.665 22.1994 176.413 22.1691 176.131 22.1489C175.858 22.1287 175.601 22.1187 175.359 22.1187C174.743 22.1187 174.203 22.2044 173.739 22.376C173.275 22.5374 172.886 22.7746 172.573 23.0874C172.271 23.4002 172.039 23.7837 171.877 24.2378C171.716 24.6818 171.625 25.1864 171.605 25.7515L170.742 25.6455C170.742 24.6061 170.848 23.6424 171.06 22.7544C171.272 21.8664 171.579 21.0894 171.983 20.4233C172.387 19.7573 172.891 19.2427 173.497 18.8794C174.112 18.506 174.819 18.3193 175.616 18.3193C175.838 18.3193 176.075 18.3395 176.327 18.3799C176.59 18.4102 176.797 18.4556 176.948 18.5161ZM187.03 31.5186V23.9653C187.03 23.4103 186.934 22.931 186.742 22.5273C186.55 22.1237 186.258 21.8109 185.864 21.5889C185.471 21.3669 184.971 21.2559 184.366 21.2559C183.831 21.2559 183.362 21.3467 182.958 21.5283C182.564 21.71 182.262 21.9673 182.05 22.3003C181.838 22.6232 181.732 22.9966 181.732 23.4204H177.721C177.721 22.7443 177.882 22.1035 178.205 21.498C178.528 20.8825 178.987 20.3376 179.582 19.8633C180.188 19.3789 180.909 19.0005 181.747 18.728C182.595 18.4556 183.543 18.3193 184.593 18.3193C185.834 18.3193 186.939 18.5312 187.908 18.9551C188.886 19.3688 189.653 19.9945 190.208 20.832C190.773 21.6696 191.056 22.7241 191.056 23.9956V31.1401C191.056 31.9575 191.106 32.6589 191.207 33.2441C191.318 33.8193 191.48 34.3188 191.692 34.7427V35H187.62C187.428 34.5863 187.282 34.0615 187.181 33.4258C187.08 32.7799 187.03 32.1442 187.03 31.5186ZM187.59 25.0249L187.62 27.4014H185.092C184.466 27.4014 183.917 27.467 183.442 27.5981C182.968 27.7192 182.579 27.9009 182.277 28.1431C181.974 28.3752 181.747 28.6577 181.596 28.9907C181.444 29.3136 181.368 29.682 181.368 30.0957C181.368 30.4993 181.459 30.8626 181.641 31.1855C181.833 31.5085 182.105 31.7658 182.458 31.9575C182.822 32.1392 183.245 32.23 183.73 32.23C184.436 32.23 185.052 32.0887 185.577 31.8062C186.101 31.5135 186.51 31.1603 186.803 30.7466C187.095 30.3328 187.252 29.9393 187.272 29.5659L188.422 31.2915C188.281 31.7052 188.069 32.1442 187.786 32.6084C187.504 33.0726 187.141 33.5065 186.697 33.9102C186.253 34.3138 185.718 34.6468 185.092 34.9092C184.466 35.1715 183.74 35.3027 182.912 35.3027C181.853 35.3027 180.904 35.0908 180.067 34.667C179.229 34.2432 178.568 33.6629 178.084 32.9263C177.599 32.1896 177.357 31.3521 177.357 30.4136C177.357 29.5457 177.519 28.7788 177.842 28.1128C178.165 27.4468 178.644 26.8867 179.28 26.4326C179.915 25.9684 180.702 25.6203 181.641 25.3882C182.59 25.146 183.674 25.0249 184.895 25.0249H187.59ZM200.759 32.1543C201.324 32.1543 201.829 32.0433 202.273 31.8213C202.717 31.5993 203.07 31.2865 203.332 30.8828C203.605 30.4792 203.751 30.0099 203.771 29.4751H207.54C207.52 30.5851 207.207 31.5791 206.602 32.457C205.997 33.335 205.189 34.0312 204.18 34.5459C203.181 35.0505 202.061 35.3027 200.82 35.3027C199.558 35.3027 198.458 35.0908 197.52 34.667C196.581 34.2432 195.799 33.6528 195.174 32.896C194.558 32.1392 194.094 31.2612 193.781 30.2622C193.478 29.2632 193.327 28.1935 193.327 27.0532V26.5688C193.327 25.4285 193.478 24.3589 193.781 23.3599C194.094 22.3608 194.558 21.4829 195.174 20.7261C195.799 19.9692 196.581 19.3789 197.52 18.9551C198.458 18.5312 199.553 18.3193 200.805 18.3193C202.127 18.3193 203.287 18.5767 204.286 19.0913C205.295 19.606 206.082 20.3325 206.647 21.271C207.223 22.2095 207.52 23.3145 207.54 24.5859H203.771C203.751 24.0007 203.62 23.4759 203.378 23.0117C203.136 22.5475 202.793 22.1742 202.349 21.8916C201.905 21.609 201.365 21.4678 200.729 21.4678C200.053 21.4678 199.488 21.609 199.034 21.8916C198.59 22.1742 198.241 22.5627 197.989 23.0571C197.747 23.5415 197.575 24.0864 197.475 24.6919C197.384 25.2873 197.338 25.9129 197.338 26.5688V27.0532C197.338 27.7192 197.384 28.355 197.475 28.9604C197.575 29.5659 197.747 30.1108 197.989 30.5952C198.241 31.0695 198.59 31.4479 199.034 31.7305C199.488 32.013 200.063 32.1543 200.759 32.1543ZM213.581 11.7349V35H209.585V11.7349H213.581ZM223.843 18.6221L216.714 26.6294L212.854 30.5498L211.583 27.4468L214.565 23.6929L219.015 18.6221H223.843ZM219.756 35L214.686 27.3711L217.35 24.7827L224.388 35H219.756ZM232.396 35.3027C231.155 35.3027 230.04 35.1009 229.051 34.6973C228.062 34.2936 227.219 33.7336 226.523 33.0171C225.837 32.2905 225.307 31.4479 224.934 30.4893C224.571 29.5205 224.389 28.4811 224.389 27.3711V26.7656C224.389 25.5042 224.571 24.3589 224.934 23.3296C225.297 22.2902 225.812 21.3971 226.478 20.6504C227.144 19.9036 227.941 19.3285 228.869 18.9248C229.798 18.5212 230.822 18.3193 231.942 18.3193C233.103 18.3193 234.127 18.5161 235.015 18.9097C235.903 19.2931 236.645 19.8381 237.24 20.5444C237.835 21.2508 238.284 22.0985 238.587 23.0874C238.89 24.0662 239.041 25.151 239.041 26.3418V28.022H226.205V25.2671H235.106V24.9644C235.085 24.3286 234.964 23.7484 234.742 23.2236C234.52 22.6888 234.177 22.265 233.713 21.9521C233.249 21.6292 232.648 21.4678 231.912 21.4678C231.316 21.4678 230.797 21.599 230.353 21.8613C229.919 22.1136 229.556 22.4769 229.263 22.9512C228.98 23.4154 228.768 23.9704 228.627 24.6162C228.486 25.262 228.415 25.9785 228.415 26.7656V27.3711C228.415 28.0573 228.506 28.693 228.688 29.2783C228.879 29.8636 229.157 30.3732 229.52 30.8071C229.894 31.231 230.338 31.564 230.852 31.8062C231.377 32.0382 231.972 32.1543 232.638 32.1543C233.476 32.1543 234.233 31.9928 234.909 31.6699C235.595 31.3369 236.19 30.8475 236.695 30.2017L238.708 32.2905C238.365 32.7951 237.901 33.2795 237.316 33.7437C236.74 34.2078 236.044 34.5863 235.227 34.8789C234.409 35.1615 233.466 35.3027 232.396 35.3027ZM245.096 21.9673V35H241.1V18.6221H244.885L245.096 21.9673ZM250.076 18.5161L250.016 22.2397C249.794 22.1994 249.542 22.1691 249.259 22.1489C248.987 22.1287 248.729 22.1187 248.487 22.1187C247.872 22.1187 247.332 22.2044 246.867 22.376C246.403 22.5374 246.015 22.7746 245.702 23.0874C245.399 23.4002 245.167 23.7837 245.006 24.2378C244.844 24.6818 244.753 25.1864 244.733 25.7515L243.87 25.6455C243.87 24.6061 243.976 23.6424 244.188 22.7544C244.4 21.8664 244.708 21.0894 245.112 20.4233C245.515 19.7573 246.02 19.2427 246.625 18.8794C247.241 18.506 247.947 18.3193 248.744 18.3193C248.966 18.3193 249.204 18.3395 249.456 18.3799C249.718 18.4102 249.925 18.4556 250.076 18.5161Z" fill="white"/>
<path d="M5.75 14.4167L19.1667 6.75L40.25 14.4167M5.75 14.4167V24L26.8333 31.6667L40.25 24V14.4167M5.75 14.4167L26.8333 22.0833L40.25 14.4167" stroke="white" stroke-width="4" stroke-linejoin="round"/>
<path d="M5.75 24V33.5833L26.8333 41.25L40.25 33.5833V24" stroke="white" stroke-width="4" stroke-linejoin="round"/>
</svg>
