<svg width="24" height="25" viewBox="0 0 24 25" fill="none" xmlns="http://www.w3.org/2000/svg">
<path fill-rule="evenodd" clip-rule="evenodd" d="M17.6485 15.2516C17.8735 15.4767 17.9998 15.7818 17.9998 16.1C17.9998 16.4182 17.8735 16.7234 17.6485 16.9484L12.8485 21.7484C12.6235 21.9734 12.3183 22.0998 12.0001 22.0998C11.6819 22.0998 11.3767 21.9734 11.1517 21.7484L6.3517 16.9484C6.23709 16.8377 6.14567 16.7053 6.08278 16.5589C6.01988 16.4125 5.98678 16.255 5.9854 16.0957C5.98401 15.9364 6.01437 15.7784 6.07471 15.6309C6.13505 15.4834 6.22415 15.3494 6.33682 15.2367C6.44949 15.1241 6.58348 15.035 6.73095 14.9746C6.87843 14.9143 7.03644 14.8839 7.19578 14.8853C7.35511 14.8867 7.51258 14.9198 7.65898 14.9827C7.80539 15.0456 7.9378 15.137 8.0485 15.2516L10.8001 18.0032V4.10002C10.8001 3.78176 10.9265 3.47654 11.1516 3.2515C11.3766 3.02645 11.6818 2.90002 12.0001 2.90002C12.3184 2.90002 12.6236 3.02645 12.8486 3.2515C13.0737 3.47654 13.2001 3.78176 13.2001 4.10002V18.0032L15.9517 15.2516C16.1767 15.0267 16.4819 14.9003 16.8001 14.9003C17.1183 14.9003 17.4235 15.0267 17.6485 15.2516Z" fill="#00BCD4"/>
</svg>
