<svg width="63" height="63" viewBox="0 0 63 63" fill="none" xmlns="http://www.w3.org/2000/svg">
<rect width="63" height="63" rx="14" fill="#FFD700" fill-opacity="0.2"/>
<path d="M25.6666 24.6667L25.6666 23.0833C25.6666 19.5855 28.5022 16.75 32 16.75V16.75C35.4978 16.75 38.3333 19.5855 38.3333 23.0833L38.3333 24.6667" stroke="#FFD700" stroke-width="2" stroke-linecap="round"/>
<path fill-rule="evenodd" clip-rule="evenodd" d="M18.3358 23.6691C17.75 24.2549 17.75 25.1977 17.75 27.0833V38.8333C17.75 42.6046 17.75 44.4902 18.9216 45.6618C20.0931 46.8333 21.9788 46.8333 25.75 46.8333H38.25C42.0212 46.8333 43.9069 46.8333 45.0784 45.6618C46.25 44.4902 46.25 42.6046 46.25 38.8333V27.0833C46.25 25.1977 46.25 24.2549 45.6642 23.6691C45.0784 23.0833 44.1356 23.0833 42.25 23.0833H21.75C19.8644 23.0833 18.9216 23.0833 18.3358 23.6691ZM28.25 31C28.25 30.4477 27.8023 30 27.25 30C26.6977 30 26.25 30.4477 26.25 31V34.1667C26.25 34.719 26.6977 35.1667 27.25 35.1667C27.8023 35.1667 28.25 34.719 28.25 34.1667V31ZM37.75 31C37.75 30.4477 37.3023 30 36.75 30C36.1977 30 35.75 30.4477 35.75 31V34.1667C35.75 34.719 36.1977 35.1667 36.75 35.1667C37.3023 35.1667 37.75 34.719 37.75 34.1667V31Z" fill="#FFD700"/>
</svg>
