<svg width="63" height="63" viewBox="0 0 63 63" fill="none" xmlns="http://www.w3.org/2000/svg">
<rect width="63" height="63" rx="14" fill="#009688" fill-opacity="0.2"/>
<path fill-rule="evenodd" clip-rule="evenodd" d="M15.6673 29.4167H47.3326C47.325 25.5969 47.2256 23.5915 45.942 22.3079C44.5508 20.9167 42.3116 20.9167 37.8333 20.9167H25.1666C20.6883 20.9167 18.4491 20.9167 17.0579 22.3079C15.7743 23.5915 15.675 25.5969 15.6673 29.4167ZM47.3333 31.4167H15.6666V35.1667C15.6666 39.645 15.6666 41.8842 17.0579 43.2754C18.4491 44.6667 20.6883 44.6667 25.1666 44.6667H25.1666H37.8333H37.8333C42.3116 44.6667 44.5508 44.6667 45.942 43.2754C47.3333 41.8842 47.3333 39.645 47.3333 35.1667V35.1667V31.4167ZM23.5833 37.3333C23.031 37.3333 22.5833 37.781 22.5833 38.3333C22.5833 38.8856 23.031 39.3333 23.5833 39.3333H23.5991C24.1514 39.3333 24.5991 38.8856 24.5991 38.3333C24.5991 37.781 24.1514 37.3333 23.5991 37.3333H23.5833Z" fill="#009688"/>
</svg>
