<svg width="43" height="20" viewBox="0 0 43 20" fill="none" xmlns="http://www.w3.org/2000/svg">
<path d="M17.2117 8.64011V17.5973C15.8359 18.0583 14.5321 18.3934 13.3001 18.603C12.0681 18.8125 11.0312 18.9173 10.1893 18.9173C7.39679 18.9173 5.20999 18.1734 3.62892 16.6858C2.04786 15.1983 1.25732 12.9144 1.25732 9.8344C1.25732 6.69154 2.08892 4.34487 3.75212 2.7944C5.41532 1.22297 7.75612 0.437256 10.7745 0.437256C12.3556 0.437256 14.2549 0.678207 16.4725 1.16011C16.4725 1.57916 16.4315 2.20773 16.3493 3.04583C16.2671 3.86297 16.1851 4.43916 16.1029 4.7744L14.9941 4.74297C13.6389 4.70107 12.5815 4.68011 11.8217 4.68011C9.54252 4.68011 8.30026 4.8163 8.09492 5.08868C7.76639 5.48678 7.53026 6.10487 7.38652 6.94297C7.26332 7.78107 7.20172 8.58773 7.20172 9.36297C7.20172 10.7668 7.35572 11.8563 7.66372 12.6315C7.97172 13.4068 8.44399 13.9515 9.08052 14.2658C9.71706 14.5801 10.5795 14.7373 11.6677 14.7373H11.7909V8.64011H17.2117ZM19.8608 0.657254H25.4048V18.5715H19.8608V0.657254ZM28.461 0.657254H41.0582V4.5544H34.005V8.10583H39.8262V11.5315H34.005V18.5715H28.461V0.657254Z" fill="#406F75"/>
</svg>
