<svg width="24" height="24" viewBox="0 0 24 24" fill="none" xmlns="http://www.w3.org/2000/svg">
<g clip-path="url(#clip0_621_576)">
<path d="M2 5.63636C2 3.62805 3.62805 2 5.63636 2H18.3636C20.3719 2 22 3.62805 22 5.63636V18.3636C22 20.3719 20.3719 22 18.3636 22H5.63636C3.62805 22 2 20.3719 2 18.3636V5.63636Z" stroke="#406F75" stroke-width="3"/>
<path d="M2 15.456L5.45434 11.596C6.25716 10.6989 7.59725 10.8328 8.24274 11.8746L10.8764 16.1253C11.4805 17.1004 12.7077 17.2919 13.5307 16.5394L16.8323 13.521C17.5569 12.8585 18.617 12.9172 19.2786 13.6565L22 16.6976" stroke="#406F75" stroke-width="3"/>
<path d="M15.5 11C16.8807 11 18 9.88071 18 8.5C18 7.11929 16.8807 6 15.5 6C14.1193 6 13 7.11929 13 8.5C13 9.88071 14.1193 11 15.5 11Z" fill="#406F75"/>
</g>
<defs>
<clipPath id="clip0_621_576">
<rect width="24" height="24" fill="white"/>
</clipPath>
</defs>
</svg>
