<svg width="6" height="27" viewBox="0 0 6 27" fill="none" xmlns="http://www.w3.org/2000/svg">
<path d="M8.2254e-07 13.5C7.50117e-07 15.1568 1.34315 16.5 3 16.5C4.65685 16.5 6 15.1568 6 13.5C6 11.8431 4.65685 10.5 3 10.5C1.34315 10.5 8.94964e-07 11.8431 8.2254e-07 13.5Z" fill="#AAAAAA"/>
<path d="M8.2254e-07 24C7.50117e-07 25.6568 1.34315 27 3 27C4.65685 27 6 25.6568 6 24C6 22.3431 4.65685 21 3 21C1.34315 21 8.94964e-07 22.3431 8.2254e-07 24Z" fill="#AAAAAA"/>
<path d="M8.2254e-07 3C7.50117e-07 4.65685 1.34315 6 3 6C4.65685 6 6 4.65685 6 3C6 1.34315 4.65685 -5.87108e-08 3 -1.31134e-07C1.34315 -2.03558e-07 8.94964e-07 1.34315 8.2254e-07 3Z" fill="#AAAAAA"/>
</svg>
