<svg width="16" height="16" viewBox="0 0 16 16" fill="none" xmlns="http://www.w3.org/2000/svg">
<path d="M6.44866 3.40992C7.03711 1.88751 7.33134 1.1263 7.80936 1.02081C7.93505 0.993065 8.06495 0.993065 8.19064 1.02081C8.66866 1.1263 8.96289 1.88751 9.55134 3.40992C9.88598 4.27569 10.0533 4.70857 10.3664 5.003C10.4542 5.08558 10.5495 5.15913 10.651 5.22262C11.0129 5.44896 11.4646 5.49094 12.3681 5.57491C13.8975 5.71705 14.6622 5.78812 14.8957 6.2406C14.944 6.33432 14.9769 6.43578 14.993 6.54078C15.0704 7.04774 14.5082 7.57851 13.3839 8.64005L13.0717 8.93483C12.546 9.43112 12.2832 9.67927 12.1312 9.98895C12.04 10.1747 11.9788 10.3748 11.9502 10.5811C11.9024 10.9251 11.9794 11.2851 12.1333 12.0051L12.1883 12.2623C12.4643 13.5535 12.6024 14.199 12.4301 14.5164C12.2753 14.8014 11.9902 14.9839 11.6753 14.9995C11.3248 15.0169 10.8308 14.5991 9.84285 13.7637C9.19196 13.2133 8.86651 12.9381 8.50522 12.8306C8.17506 12.7323 7.82494 12.7323 7.49478 12.8306C7.13349 12.9381 6.80804 13.2133 6.15715 13.7637C5.1692 14.5991 4.67523 15.0169 4.32466 14.9995C4.00975 14.9839 3.72469 14.8014 3.56992 14.5164C3.39763 14.199 3.53565 13.5535 3.81169 12.2623L3.86669 12.0051C4.02061 11.2851 4.09758 10.9251 4.04982 10.5811C4.02117 10.3748 3.96002 10.1747 3.86883 9.98895C3.71681 9.67927 3.45399 9.43112 2.92835 8.93483L2.61612 8.64005C1.49179 7.57851 0.929627 7.04774 1.00705 6.54078C1.02308 6.43578 1.05596 6.33432 1.10433 6.2406C1.33785 5.78812 2.10254 5.71705 3.63193 5.57491C4.53539 5.49094 4.98712 5.44896 5.34898 5.22262C5.45048 5.15913 5.5458 5.08558 5.63362 5.003C5.9467 4.70857 6.11402 4.27569 6.44866 3.40992Z" fill="#FFD700" stroke="#FFD700" stroke-width="2"/>
</svg>
