<svg width="19" height="19" viewBox="0 0 19 19" fill="none" xmlns="http://www.w3.org/2000/svg">
<path d="M15.0413 6.33333C14.3816 6.33333 13.8209 6.10243 13.3591 5.64062C12.8972 5.17882 12.6663 4.61805 12.6663 3.95833C12.6663 3.29861 12.8972 2.73785 13.3591 2.27604C13.8209 1.81423 14.3816 1.58333 15.0413 1.58333C15.7011 1.58333 16.2618 1.81423 16.7236 2.27604C17.1854 2.73785 17.4163 3.29861 17.4163 3.95833C17.4163 4.61805 17.1854 5.17882 16.7236 5.64062C16.2618 6.10243 15.7011 6.33333 15.0413 6.33333ZM10.1726 17.4167C9.46009 17.4167 8.85974 17.1726 8.37155 16.6844C7.88336 16.1962 7.63926 15.609 7.63926 14.9229C7.63926 13.9201 8.04499 13.013 8.85645 12.2016C9.6679 11.3901 10.6806 10.8854 11.8945 10.6875C11.8549 10.2125 11.7361 9.85295 11.5382 9.60885C11.3403 9.36476 11.0698 9.24271 10.7268 9.24271C10.3309 9.24271 9.90211 9.40764 9.4403 9.7375C8.97849 10.0674 8.43092 10.6083 7.79759 11.3604C6.76842 12.5875 6.01304 13.3858 5.53145 13.7552C5.04985 14.1247 4.53197 14.3094 3.9778 14.3094C3.30488 14.3094 2.73752 14.0587 2.27572 13.5573C1.81391 13.0559 1.58301 12.449 1.58301 11.7365C1.58301 11.024 1.73804 10.295 2.04811 9.54948C2.35818 8.80399 2.88266 7.91007 3.62155 6.86771C3.87224 6.52465 4.05697 6.23437 4.17572 5.99687C4.29447 5.75937 4.35384 5.56805 4.35384 5.42292C4.35384 5.33055 4.33735 5.26128 4.30436 5.2151C4.27138 5.16892 4.2219 5.14583 4.15592 5.14583C4.08995 5.14583 4.01079 5.16562 3.91842 5.20521C3.82606 5.24479 3.72711 5.31736 3.62155 5.42292C3.42363 5.60764 3.19603 5.7066 2.93874 5.71979C2.68145 5.73299 2.46044 5.64722 2.27572 5.4625C2.0778 5.25139 1.97554 5.00399 1.96895 4.72031C1.96235 4.43663 2.06461 4.20243 2.27572 4.01771C2.59238 3.74062 2.90905 3.52951 3.22572 3.38437C3.54238 3.23923 3.85245 3.16667 4.15592 3.16667C4.76287 3.16667 5.27745 3.37778 5.69967 3.8C6.1219 4.22222 6.33301 4.75 6.33301 5.38333C6.33301 5.76597 6.23405 6.18819 6.03613 6.65C5.83822 7.1118 5.50836 7.66597 5.04655 8.3125C4.54516 9.025 4.17242 9.65174 3.92832 10.1927C3.68422 10.7337 3.56217 11.2087 3.56217 11.6177C3.56217 11.842 3.59846 12.0168 3.67103 12.1422C3.7436 12.2675 3.84586 12.3302 3.9778 12.3302C4.10974 12.3302 4.2252 12.2939 4.32415 12.2214C4.42311 12.1488 4.60454 11.974 4.86842 11.6969C5.03995 11.5122 5.24447 11.2845 5.48197 11.0141C5.71947 10.7436 6.00974 10.4104 6.3528 10.0146C7.18405 9.025 7.93613 8.3191 8.60905 7.89687C9.28197 7.47465 9.98787 7.26354 10.7268 7.26354C11.6108 7.26354 12.3365 7.56042 12.9038 8.15417C13.4712 8.74792 13.7945 9.55937 13.8736 10.5885H14.8434C15.1205 10.5885 15.3547 10.6842 15.546 10.8755C15.7373 11.0668 15.833 11.301 15.833 11.5781C15.833 11.8552 15.7373 12.0894 15.546 12.2807C15.3547 12.472 15.1205 12.5677 14.8434 12.5677H13.8736C13.7681 14.0455 13.3821 15.2231 12.7158 16.1005C12.0495 16.978 11.2018 17.4167 10.1726 17.4167ZM10.2122 15.4375C10.6344 15.4375 10.9906 15.1967 11.2809 14.7151C11.5712 14.2335 11.7691 13.5639 11.8747 12.7062C11.2677 12.8514 10.74 13.1384 10.2913 13.5672C9.84273 13.996 9.61843 14.4215 9.61843 14.8438C9.61843 15.0285 9.6712 15.1736 9.77676 15.2792C9.88231 15.3847 10.0275 15.4375 10.2122 15.4375Z" fill="#00BCD4"/>
</svg>
