<svg width="21" height="20" viewBox="0 0 21 20" fill="none" xmlns="http://www.w3.org/2000/svg">
<path d="M9.5 6C9.5 6.79565 9.18393 7.55871 8.62132 8.12132C8.05871 8.68393 7.29565 9 6.5 9C5.70435 9 4.94129 8.68393 4.37868 8.12132C3.81607 7.55871 3.5 6.79565 3.5 6C3.5 5.20435 3.81607 4.44129 4.37868 3.87868C4.94129 3.31607 5.70435 3 6.5 3C7.29565 3 8.05871 3.31607 8.62132 3.87868C9.18393 4.44129 9.5 5.20435 9.5 6ZM17.5 6C17.5 6.39397 17.4224 6.78407 17.2716 7.14805C17.1209 7.51203 16.8999 7.84274 16.6213 8.12132C16.3427 8.3999 16.012 8.62087 15.6481 8.77164C15.2841 8.9224 14.894 9 14.5 9C14.106 9 13.7159 8.9224 13.3519 8.77164C12.988 8.62087 12.6573 8.3999 12.3787 8.12132C12.1001 7.84274 11.8791 7.51203 11.7284 7.14805C11.5776 6.78407 11.5 6.39397 11.5 6C11.5 5.20435 11.8161 4.44129 12.3787 3.87868C12.9413 3.31607 13.7044 3 14.5 3C15.2956 3 16.0587 3.31607 16.6213 3.87868C17.1839 4.44129 17.5 5.20435 17.5 6ZM13.43 17C13.476 16.673 13.5 16.34 13.5 16C13.5023 14.4289 12.9737 12.903 12 11.67C12.7601 11.2312 13.6223 11.0001 14.5 11.0001C15.3776 11.0001 16.2399 11.2311 16.9999 11.67C17.76 12.1088 18.3912 12.74 18.8301 13.5C19.2689 14.2601 19.5 15.1223 19.5 16V17H13.43ZM6.5 11C7.82608 11 9.09785 11.5268 10.0355 12.4645C10.9732 13.4021 11.5 14.6739 11.5 16V17H1.5V16C1.5 14.6739 2.02678 13.4021 2.96447 12.4645C3.90215 11.5268 5.17392 11 6.5 11Z" fill="#00BCD4"/>
</svg>
