<svg width="25" height="26" viewBox="0 0 25 26" fill="none" xmlns="http://www.w3.org/2000/svg">
<path d="M9.66699 18.3821V14.6181C9.66699 13.8748 10.4493 13.3913 11.1142 13.7237L14.8781 15.6057C15.6152 15.9742 15.6152 17.026 14.8781 17.3945L11.1142 19.2765C10.4493 19.6089 9.66699 19.1254 9.66699 18.3821Z" fill="#406F75"/>
<path d="M12.667 2H6.66699C5.56242 2 4.66699 2.89543 4.66699 4V22C4.66699 23.1046 5.56242 24 6.66699 24H18.667C19.7716 24 20.667 23.1046 20.667 22V10.5556M12.667 2H14.5187C14.7956 2 15.06 2.11478 15.2491 2.31701L20.3974 7.82281C20.5706 8.00806 20.667 8.2522 20.667 8.50581V10.5556M12.667 2V8.55555C12.667 9.66012 13.5624 10.5556 14.667 10.5556H20.667" stroke="#406F75" stroke-width="3"/>
</svg>
