<svg width="63" height="63" viewBox="0 0 63 63" fill="none" xmlns="http://www.w3.org/2000/svg">
<rect width="63" height="63" rx="14" fill="#FFD700" fill-opacity="0.2"/>
<path d="M44.6667 20.3333C45.219 20.3333 45.6667 19.8856 45.6667 19.3333C45.6667 18.781 45.219 18.3333 44.6667 18.3333V20.3333ZM21.7084 20.3333L44.6667 20.3333V18.3333L21.7084 18.3333V20.3333ZM21.7084 28.25L34.375 28.25V26.25L21.7084 26.25V28.25ZM18.75 23.2917C18.75 21.6578 20.0745 20.3333 21.7084 20.3333V18.3333C18.97 18.3333 16.75 20.5533 16.75 23.2917H18.75ZM16.75 23.2917C16.75 26.0301 18.97 28.25 21.7084 28.25V26.25C20.0745 26.25 18.75 24.9255 18.75 23.2917H16.75Z" fill="#FFD700"/>
<path d="M17.75 32V23.2917" stroke="#FFD700" stroke-width="2"/>
<path d="M17.25 26.75H17.75L44.25 26.75H44.2829C44.7262 26.75 45.1081 26.75 45.4139 26.7911C45.7417 26.8351 46.0558 26.9345 46.3107 27.1893L46.3107 27.1893C46.5655 27.4442 46.6649 27.7583 46.7089 28.0861C46.75 28.3919 46.75 28.7738 46.75 29.2171L46.75 29.25V32V32.5H46.25H41.5C40.7854 32.5 40.4826 32.5014 40.2364 32.5379C38.7115 32.7641 37.5141 33.9615 37.2879 35.4864C37.2514 35.7326 37.25 36.0354 37.25 36.75C37.25 37.4646 37.2514 37.7674 37.2879 38.0136C37.5141 39.5385 38.7115 40.7359 40.2364 40.9621C40.4826 40.9986 40.7854 41 41.5 41H46.25H46.75V41.5V44.25C46.75 44.261 46.75 44.272 46.75 44.2829C46.75 44.7262 46.75 45.1081 46.7089 45.4139C46.6649 45.7417 46.5655 46.0558 46.3107 46.3107L17.25 26.75ZM17.25 26.75V27.25M17.25 26.75V27.25M17.25 27.25L17.25 44.25V44.2829C17.25 44.7262 17.25 45.1081 17.2911 45.4139C17.3351 45.7417 17.4345 46.0558 17.6893 46.3107C17.9442 46.5655 18.2583 46.6649 18.5861 46.7089C18.8919 46.75 19.2738 46.75 19.7171 46.75L19.75 46.75L44.25 46.75M17.25 27.25L44.25 46.75M44.25 46.75C44.261 46.75 44.272 46.75 44.2829 46.75M44.25 46.75L44.2829 46.75M44.2829 46.75C44.7262 46.75 45.1081 46.75 45.4139 46.7089M44.2829 46.75L45.4139 46.7089M45.4139 46.7089C45.7417 46.6649 46.0558 46.5655 46.3107 46.3107L45.4139 46.7089Z" fill="#FFD700" stroke="#FFD700"/>
</svg>
