<svg width="18" height="18" viewBox="0 0 18 18" fill="none" xmlns="http://www.w3.org/2000/svg">
<path fill-rule="evenodd" clip-rule="evenodd" d="M9 1C4.58172 1 1 4.58172 1 9C1 13.4183 4.58172 17 9 17H13C13.93 17 14.395 17 14.7765 16.8978C15.8117 16.6204 16.6204 15.8117 16.8978 14.7765C17 14.395 17 13.93 17 13V9C17 4.58172 13.4183 1 9 1ZM4.25 8.25C4.25 7.69772 4.69772 7.25 5.25 7.25H12.75C13.3023 7.25 13.75 7.69772 13.75 8.25C13.75 8.80228 13.3023 9.25 12.75 9.25H5.25C4.69772 9.25 4.25 8.80228 4.25 8.25ZM8 11.25C8 10.6977 8.44772 10.25 9 10.25H12.75C13.3023 10.25 13.75 10.6977 13.75 11.25C13.75 11.8023 13.3023 12.25 12.75 12.25H9C8.44772 12.25 8 11.8023 8 11.25Z" fill="#00BCD4"/>
</svg>
